<?xml version="1.0" encoding="iso-8859-1"?>
<!-- Generator: Adobe Illustrator 19.0.0, SVG Export Plug-In . SVG Version: 6.00 Build 0)  -->
<svg version="1.1" id="Capa_1" xmlns="http://www.w3.org/2000/svg" xmlns:xlink="http://www.w3.org/1999/xlink" x="0px" y="0px"
	 viewBox="0 0 511.802 511.802" style="enable-background:new 0 0 511.802 511.802;" xml:space="preserve">
<path style="fill:#ED5564;" d="M423.835,339.87c-8.832,0-15.993,7.153-15.993,15.994V491.81c0,8.824,7.161,15.993,15.993,15.993
	c8.841,0,15.994-7.169,15.994-15.993V355.864C439.829,347.023,432.675,339.87,423.835,339.87z"/>
<rect x="23.991" y="3.998" style="fill:#656D78;" width="343.87" height="439.83"/>
<rect x="39.991" y="27.991" style="fill:#E6E9ED;" width="311.88" height="399.85"/>
<g style="opacity:0.2;">
	<rect x="23.991" y="3.998" style="fill:#FFFFFF;" width="7.997" height="439.83"/>
</g>
<g style="opacity:0.3;">
	<rect x="359.861" y="3.998" width="7.997" height="439.83"/>
</g>
<g>
	<rect x="263.901" y="403.841" style="fill:#CCD1D9;" width="143.94" height="39.984"/>
	<rect x="184.171" y="403.841" style="fill:#CCD1D9;" width="15.751" height="39.984"/>
	<rect x="471.931" y="403.841" style="fill:#CCD1D9;" width="15.752" height="39.984"/>
</g>
<g>
	<path style="fill:#ED5564;" d="M215.917,363.86c-8.833,0-15.994,7.154-15.994,15.994v87.965c0,8.825,7.161,15.994,15.994,15.994
		c8.836,0,15.994-7.169,15.994-15.994v-87.965C231.91,371.014,224.753,363.86,215.917,363.86z"/>
	<path style="fill:#ED5564;" d="M455.159,363.86c-8.833,0-15.994,7.154-15.994,15.994v87.965c0,8.825,7.161,15.994,15.994,15.994
		c8.832,0,15.993-7.169,15.993-15.994v-87.965C471.152,371.014,463.991,363.86,455.159,363.86z"/>
	<path style="fill:#ED5564;" d="M247.904,339.87c-8.832,0-15.994,7.153-15.994,15.994V491.81c0,8.824,7.162,15.993,15.994,15.993
		c8.836,0,15.994-7.169,15.994-15.993V355.864C263.898,347.023,256.74,339.87,247.904,339.87z"/>
</g>
<g style="opacity:0.2;">
	<path style="fill:#FFFFFF;" d="M215.917,363.86c-8.833,0-15.994,7.154-15.994,15.994v15.994c0-8.841,7.161-15.994,15.994-15.994
		c8.836,0,15.994,7.153,15.994,15.994v-15.994C231.91,371.014,224.753,363.86,215.917,363.86z"/>
</g>
<g style="opacity:0.2;">
	<path style="fill:#FFFFFF;" d="M455.822,363.86c-8.832,0-15.993,7.154-15.993,15.994v15.994c0-8.841,7.161-15.994,15.993-15.994
		c8.841,0,15.994,7.153,15.994,15.994v-15.994C471.816,371.014,464.663,363.86,455.822,363.86z"/>
</g>
<g style="opacity:0.2;">
	<path style="fill:#FFFFFF;" d="M247.904,339.87c-8.832,0-15.994,7.153-15.994,15.994v15.993c0-8.84,7.162-15.993,15.994-15.993
		c8.836,0,15.994,7.153,15.994,15.993v-15.993C263.898,347.023,256.74,339.87,247.904,339.87z"/>
</g>
<g style="opacity:0.2;">
	<path style="fill:#FFFFFF;" d="M423.835,339.87c-8.832,0-15.993,7.153-15.993,15.994v15.993c0-8.84,7.161-15.993,15.993-15.993
		c8.841,0,15.994,7.153,15.994,15.993v-15.993C439.829,347.023,432.675,339.87,423.835,339.87z"/>
</g>
<g style="opacity:0.2;">
	<path d="M247.904,507.803c8.833,0,15.994-7.169,15.994-15.993v-15.994c0,8.825-7.162,15.994-15.994,15.994
		c-8.836,0-15.994-7.169-15.994-15.994v15.994C231.91,500.634,239.068,507.803,247.904,507.803z"/>
</g>
<g style="opacity:0.2;">
	<path d="M423.835,507.803c8.833,0,15.994-7.169,15.994-15.993v-15.994c0,8.825-7.161,15.994-15.994,15.994
		c-8.84,0-15.993-7.169-15.993-15.994v15.994C407.841,500.634,414.995,507.803,423.835,507.803z"/>
</g>
<g style="opacity:0.2;">
	<path d="M215.917,483.813c8.833,0,15.994-7.153,15.994-15.994v-15.993c0,8.841-7.161,15.993-15.994,15.993
		c-8.836,0-15.994-7.152-15.994-15.993v15.993C199.923,476.66,207.08,483.813,215.917,483.813z"/>
</g>
<g style="opacity:0.2;">
	<path d="M455.822,483.813c8.833,0,15.994-7.153,15.994-15.994v-15.993c0,8.841-7.161,15.993-15.994,15.993
		c-8.84,0-15.993-7.152-15.993-15.993v15.993C439.829,476.66,446.982,483.813,455.822,483.813z"/>
</g>
<g style="opacity:0.2;">
	<rect x="192.171" y="403.841" width="7.755" height="39.984"/>
</g>
<g style="opacity:0.2;">
	<rect x="264.141" y="403.841" width="7.754" height="39.984"/>
</g>
<g style="opacity:0.2;">
	<rect x="399.841" y="403.841" width="7.755" height="39.984"/>
</g>
<g style="opacity:0.2;">
	<rect x="471.931" y="403.841" width="7.755" height="39.984"/>
</g>
<g style="opacity:0.7;">
	<rect x="271.891" y="403.841" style="fill:#FFFFFF;" width="127.95" height="7.997"/>
</g>
<g style="opacity:0.7;">
	<rect x="184.171" y="403.841" style="fill:#FFFFFF;" width="8" height="7.997"/>
</g>
<g style="opacity:0.7;">
	<rect x="479.811" y="403.841" style="fill:#FFFFFF;" width="7.997" height="7.997"/>
</g>
<g style="opacity:0.2;">
	<rect x="271.891" y="435.831" width="127.95" height="7.996"/>
</g>
<g style="opacity:0.2;">
	<rect x="184.171" y="435.831" width="8" height="7.996"/>
</g>
<g style="opacity:0.2;">
	<rect x="479.811" y="435.831" width="7.997" height="7.996"/>
</g>
<circle style="fill:#ED5564;" cx="99.961" cy="127.951" r="11.995"/>
<g style="opacity:0.2;">
	<path style="fill:#FFFFFF;" d="M95.964,127.949c0-5.217,3.351-9.61,7.997-11.261c-1.257-0.445-2.589-0.734-3.998-0.734
		c-6.626,0-11.996,5.369-11.996,11.996c0,6.627,5.369,11.995,11.996,11.995c1.409,0,2.741-0.289,3.998-0.734
		C99.314,137.559,95.964,133.166,95.964,127.949z"/>
</g>
<circle style="fill:#ED5564;" cx="99.961" cy="207.921" r="11.995"/>
<g style="opacity:0.2;">
	<path style="fill:#FFFFFF;" d="M95.964,207.918c0-5.217,3.351-9.609,7.997-11.261c-1.257-0.445-2.589-0.734-3.998-0.734
		c-6.626,0-11.996,5.369-11.996,11.995c0,6.626,5.369,11.996,11.996,11.996c1.409,0,2.741-0.289,3.998-0.734
		C99.314,217.527,95.964,213.134,95.964,207.918z"/>
</g>
<path style="fill:#ED5564;" d="M111.958,287.89c0,6.622-5.369,11.995-11.995,11.995s-11.996-5.373-11.996-11.995
	c0-6.63,5.369-11.995,11.996-11.995C106.589,275.895,111.958,281.26,111.958,287.89z"/>
<g style="opacity:0.2;">
	<path style="fill:#FFFFFF;" d="M95.964,287.89c0-5.217,3.351-9.613,7.997-11.261c-1.257-0.453-2.589-0.734-3.998-0.734
		c-6.626,0-11.996,5.365-11.996,11.995c0,6.622,5.369,11.995,11.996,11.995c1.409,0,2.741-0.297,3.998-0.734
		C99.314,297.496,95.964,293.107,95.964,287.89z"/>
</g>
<rect x="39.991" y="27.991" style="fill:#FFFFFF;" width="7.997" height="399.85"/>
<g style="opacity:0.2;">
	<rect x="343.871" y="27.991" width="7.996" height="375.86"/>
</g>
<g style="opacity:0.2;">
	<polygon points="125.398,27.989 135.964,43.982 247.896,43.982 258.646,27.989 	"/>
</g>
<polygon style="fill:#FFCE54;" points="269.396,3.998 114.832,3.998 135.964,35.985 247.896,35.985 "/>
<g style="opacity:0.5;">
	<polygon style="fill:#FFFFFF;" points="114.832,3.998 135.964,35.985 143.961,35.985 122.828,3.998 	"/>
</g>
<g style="opacity:0.3;">
	<polygon points="269.396,3.998 248.263,35.985 240.266,35.985 261.399,3.998 	"/>
</g>
<g>
	<path style="fill:#3A3847;" d="M247.888,39.984H135.964c-1.335,0-2.585-0.668-3.327-1.781l-16.001-23.991
		c-1.226-1.835-0.73-4.318,1.109-5.544c1.824-1.23,4.323-0.73,5.544,1.109l14.814,22.21h107.646l14.814-22.21
		c1.214-1.839,3.702-2.339,5.545-1.109c1.835,1.226,2.335,3.709,1.108,5.544l-16.001,23.991
		C250.473,39.316,249.224,39.984,247.888,39.984z"/>
	<path style="fill:#3A3847;" d="M122.621,31.987H39.986c-2.21,0-3.999-1.788-3.999-3.998s1.789-3.999,3.999-3.999h82.635
		c2.21,0,3.999,1.789,3.999,3.999S124.832,31.987,122.621,31.987z"/>
	<path style="fill:#3A3847;" d="M351.863,31.987h-87.949c-2.215,0-4.003-1.788-4.003-3.998s1.788-3.999,4.003-3.999h87.949
		c2.211,0,3.999,1.789,3.999,3.999S354.074,31.987,351.863,31.987z"/>
	<path style="fill:#3A3847;" d="M223.914,23.99h-63.975c-2.21,0-3.999-1.788-3.999-3.998s1.789-3.999,3.999-3.999h63.975
		c2.21,0,3.998,1.789,3.998,3.999S226.124,23.99,223.914,23.99z"/>
	<path style="fill:#3A3847;" d="M39.986,431.834c-2.21,0-3.999-1.796-3.999-3.998V27.989c0-2.21,1.789-3.999,3.999-3.999
		s3.998,1.789,3.998,3.999v399.847C43.984,430.038,42.196,431.834,39.986,431.834z"/>
	<path style="fill:#3A3847;" d="M351.863,399.846c-2.21,0-3.998-1.78-3.998-3.998V27.989c0-2.21,1.788-3.999,3.998-3.999
		c2.211,0,3.999,1.789,3.999,3.999v367.859C355.862,398.066,354.074,399.846,351.863,399.846z"/>
	<path style="fill:#3A3847;" d="M175.932,431.834H39.986c-2.21,0-3.999-1.796-3.999-3.998c0-2.218,1.789-3.999,3.999-3.999h135.946
		c2.21,0,3.999,1.781,3.999,3.999C179.931,430.038,178.142,431.834,175.932,431.834z"/>
	<path style="fill:#3A3847;" d="M367.857,399.846c-2.21,0-3.998-1.78-3.998-3.998V3.998c0-2.21,1.788-3.998,3.998-3.998
		s3.998,1.788,3.998,3.998v391.851C371.855,398.066,370.067,399.846,367.857,399.846z"/>
	<path style="fill:#3A3847;" d="M175.932,447.828H23.992c-2.21,0-3.998-1.797-3.998-3.999c0-2.218,1.788-3.998,3.998-3.998h151.94
		c2.21,0,3.999,1.78,3.999,3.998C179.931,446.031,178.142,447.828,175.932,447.828z"/>
	<path style="fill:#3A3847;" d="M23.992,447.828c-2.21,0-3.998-1.797-3.998-3.999V3.998c0-2.21,1.788-3.998,3.998-3.998
		s3.999,1.788,3.999,3.998v439.831C27.991,446.031,26.202,447.828,23.992,447.828z"/>
	<path style="fill:#3A3847;" d="M367.857,7.997H23.992c-2.21,0-3.998-1.789-3.998-3.999S21.782,0,23.992,0h343.865
		c2.21,0,3.998,1.788,3.998,3.998C371.855,6.208,370.067,7.997,367.857,7.997z"/>
	<path style="fill:#3A3847;" d="M303.882,119.953H143.945c-2.21,0-3.999-1.789-3.999-3.999s1.789-3.998,3.999-3.998h159.938
		c2.21,0,3.998,1.788,3.998,3.998C307.88,118.164,306.092,119.953,303.882,119.953z"/>
	<path style="fill:#3A3847;" d="M303.882,143.943H143.945c-2.21,0-3.999-1.788-3.999-3.999c0-2.21,1.789-3.999,3.999-3.999h159.938
		c2.21,0,3.998,1.789,3.998,3.999C307.88,142.155,306.092,143.943,303.882,143.943z"/>
	<path style="fill:#3A3847;" d="M99.963,143.943c-8.821,0-15.994-7.173-15.994-15.994s7.173-15.994,15.994-15.994
		c8.82,0,15.993,7.173,15.993,15.994S108.783,143.943,99.963,143.943z M99.963,119.953c-4.409,0-7.997,3.588-7.997,7.997
		s3.588,7.997,7.997,7.997c4.408,0,7.997-3.588,7.997-7.997S104.371,119.953,99.963,119.953z"/>
	<path style="fill:#3A3847;" d="M303.882,199.921H143.945c-2.21,0-3.999-1.789-3.999-3.999s1.789-3.998,3.999-3.998h159.938
		c2.21,0,3.998,1.788,3.998,3.998S306.092,199.921,303.882,199.921z"/>
	<path style="fill:#3A3847;" d="M223.914,223.912h-79.969c-2.21,0-3.999-1.789-3.999-3.999c0-2.21,1.789-3.999,3.999-3.999h79.969
		c2.21,0,3.998,1.788,3.998,3.999C227.912,222.123,226.124,223.912,223.914,223.912z"/>
	<path style="fill:#3A3847;" d="M99.963,223.912c-8.821,0-15.994-7.173-15.994-15.994c0-8.82,7.173-15.993,15.994-15.993
		c8.82,0,15.993,7.173,15.993,15.993C115.956,216.739,108.783,223.912,99.963,223.912z M99.963,199.921
		c-4.409,0-7.997,3.588-7.997,7.997s3.588,7.997,7.997,7.997c4.408,0,7.997-3.588,7.997-7.997
		C107.959,203.509,104.371,199.921,99.963,199.921z"/>
	<path style="fill:#3A3847;" d="M303.882,279.893H143.945c-2.21,0-3.999-1.796-3.999-3.998c0-2.218,1.789-3.998,3.999-3.998h159.938
		c2.21,0,3.998,1.78,3.998,3.998C307.88,278.097,306.092,279.893,303.882,279.893z"/>
	<path style="fill:#3A3847;" d="M303.882,303.883H143.945c-2.21,0-3.999-1.796-3.999-3.998c0-2.218,1.789-3.998,3.999-3.998h159.938
		c2.21,0,3.998,1.78,3.998,3.998C307.88,302.088,306.092,303.883,303.882,303.883z"/>
	<path style="fill:#3A3847;" d="M223.914,327.875h-79.969c-2.21,0-3.999-1.796-3.999-3.999c0-2.217,1.789-3.998,3.999-3.998h79.969
		c2.21,0,3.998,1.781,3.998,3.998C227.912,326.079,226.124,327.875,223.914,327.875z"/>
	<path style="fill:#3A3847;" d="M99.963,303.883c-8.821,0-15.994-7.176-15.994-15.993c0-8.825,7.173-15.993,15.994-15.993
		c8.82,0,15.993,7.168,15.993,15.993C115.956,296.708,108.783,303.883,99.963,303.883z M99.963,279.893
		c-4.409,0-7.997,3.585-7.997,7.997c0,4.404,3.588,7.997,7.997,7.997c4.408,0,7.997-3.593,7.997-7.997
		C107.959,283.478,104.371,279.893,99.963,279.893z"/>
	<path style="fill:#3A3847;" d="M288.123,431.834c-2.202,0-4.029-1.78-4.029-3.998c0-2.202,1.749-3.999,3.951-3.999h0.078
		c2.218,0,3.998,1.797,3.998,3.999C292.121,430.053,290.34,431.834,288.123,431.834z"/>
	<path style="fill:#3A3847;" d="M320.11,431.834c-2.202,0-4.029-1.78-4.029-3.998c0-2.202,1.749-3.999,3.951-3.999h0.078
		c2.218,0,3.999,1.797,3.999,3.999C324.109,430.053,322.328,431.834,320.11,431.834z"/>
	<path style="fill:#3A3847;" d="M352.097,431.834c-2.202,0-4.029-1.78-4.029-3.998c0-2.202,1.749-3.999,3.951-3.999h0.078
		c2.218,0,3.998,1.797,3.998,3.999C356.095,430.053,354.315,431.834,352.097,431.834z"/>
	<path style="fill:#3A3847;" d="M384.085,431.834c-2.202,0-4.029-1.78-4.029-3.998c0-2.202,1.749-3.999,3.951-3.999h0.078
		c2.218,0,3.999,1.797,3.999,3.999C388.084,430.053,386.302,431.834,384.085,431.834z"/>
	<path style="fill:#3A3847;" d="M304.117,423.837c-2.203,0-4.03-1.78-4.03-3.998c0-2.202,1.749-3.998,3.952-3.998h0.078
		c2.217,0,3.998,1.796,3.998,3.998C308.115,422.056,306.334,423.837,304.117,423.837z"/>
	<path style="fill:#3A3847;" d="M336.103,423.837c-2.201,0-4.029-1.78-4.029-3.998c0-2.202,1.75-3.998,3.952-3.998h0.077
		c2.219,0,3.999,1.796,3.999,3.998C340.102,422.056,338.322,423.837,336.103,423.837z"/>
	<path style="fill:#3A3847;" d="M368.091,423.837c-2.203,0-4.03-1.78-4.03-3.998c0-2.202,1.75-3.998,3.952-3.998h0.078
		c2.218,0,3.998,1.796,3.998,3.998C372.089,422.056,370.309,423.837,368.091,423.837z"/>
	<path style="fill:#3A3847;" d="M231.91,383.852c-2.21,0-3.999-1.78-3.999-3.998c0-6.606-5.381-11.995-11.995-11.995
		s-11.995,5.389-11.995,11.995c0,2.218-1.789,3.998-3.999,3.998c-2.21,0-3.999-1.78-3.999-3.998c0-11.02,8.969-19.992,19.992-19.992
		s19.992,8.973,19.992,19.992C235.909,382.072,234.121,383.852,231.91,383.852z"/>
	<path style="fill:#3A3847;" d="M215.917,487.811c-11.023,0-19.992-8.965-19.992-19.992c0-2.201,1.788-3.998,3.999-3.998
		c2.21,0,3.999,1.797,3.999,3.998c0,6.623,5.381,11.996,11.995,11.996s11.995-5.373,11.995-11.996c0-2.201,1.789-3.998,3.999-3.998
		c2.21,0,3.999,1.797,3.999,3.998C235.909,478.846,226.94,487.811,215.917,487.811z"/>
	<path style="fill:#3A3847;" d="M199.923,471.818c-2.21,0-3.999-1.78-3.999-3.999v-87.965c0-2.202,1.788-3.998,3.999-3.998
		c2.21,0,3.999,1.796,3.999,3.998v87.965C203.922,470.038,202.133,471.818,199.923,471.818z"/>
	<path style="fill:#3A3847;" d="M231.91,471.818c-2.21,0-3.999-1.78-3.999-3.999v-87.965c0-2.202,1.789-3.998,3.999-3.998
		c2.21,0,3.999,1.796,3.999,3.998v87.965C235.909,470.038,234.121,471.818,231.91,471.818z"/>
	<path style="fill:#3A3847;" d="M263.898,359.862c-2.211,0-3.999-1.78-3.999-3.998c0-6.607-5.38-11.996-11.995-11.996
		c-6.614,0-11.995,5.389-11.995,11.996c0,2.218-1.788,3.998-3.999,3.998c-2.21,0-3.999-1.78-3.999-3.998
		c0-11.02,8.969-19.992,19.992-19.992c11.023,0,19.992,8.973,19.992,19.992C267.896,358.082,266.108,359.862,263.898,359.862z"/>
	<path style="fill:#3A3847;" d="M247.904,511.802c-11.023,0-19.992-8.966-19.992-19.992c0-2.202,1.789-3.999,3.999-3.999
		c2.21,0,3.999,1.797,3.999,3.999c0,6.622,5.381,11.995,11.995,11.995c6.615,0,11.995-5.373,11.995-11.995
		c0-2.202,1.788-3.999,3.999-3.999c2.21,0,3.998,1.797,3.998,3.999C267.896,502.837,258.927,511.802,247.904,511.802z"/>
	<path style="fill:#3A3847;" d="M231.91,495.808c-2.21,0-3.999-1.78-3.999-3.998V355.864c0-2.203,1.789-3.999,3.999-3.999
		c2.21,0,3.999,1.796,3.999,3.999V491.81C235.909,494.028,234.121,495.808,231.91,495.808z"/>
	<path style="fill:#3A3847;" d="M263.898,495.808c-2.211,0-3.999-1.78-3.999-3.998V355.864c0-2.203,1.788-3.999,3.999-3.999
		c2.21,0,3.998,1.796,3.998,3.999V491.81C267.896,494.028,266.108,495.808,263.898,495.808z"/>
	<path style="fill:#3A3847;" d="M455.822,487.811c-11.026,0-19.992-8.973-19.992-19.992c0-2.217,1.789-3.998,3.999-3.998
		s3.998,1.781,3.998,3.998c0,6.607,5.381,11.996,11.995,11.996c6.615,0,11.996-5.389,11.996-11.996c0-2.217,1.788-3.998,3.998-3.998
		s3.998,1.781,3.998,3.998C475.814,478.839,466.849,487.811,455.822,487.811z"/>
	<path style="fill:#3A3847;" d="M471.816,383.852c-2.21,0-3.998-1.796-3.998-3.998c0-6.622-5.381-11.995-11.996-11.995
		c-6.614,0-11.995,5.373-11.995,11.995c0,2.202-1.788,3.998-3.998,3.998s-3.999-1.796-3.999-3.998
		c0-11.027,8.966-19.992,19.992-19.992c11.027,0,19.992,8.965,19.992,19.992C475.814,382.056,474.026,383.852,471.816,383.852z"/>
	<path style="fill:#3A3847;" d="M471.816,471.818c-2.21,0-3.998-1.796-3.998-3.999v-87.965c0-2.218,1.788-3.998,3.998-3.998
		s3.998,1.78,3.998,3.998v87.965C475.814,470.022,474.026,471.818,471.816,471.818z"/>
	<path style="fill:#3A3847;" d="M439.829,471.818c-2.21,0-3.999-1.796-3.999-3.999v-87.965c0-2.218,1.789-3.998,3.999-3.998
		s3.998,1.78,3.998,3.998v87.965C443.827,470.022,442.039,471.818,439.829,471.818z"/>
	<path style="fill:#3A3847;" d="M423.835,511.802c-11.026,0-19.992-8.974-19.992-19.992c0-2.218,1.788-3.999,3.999-3.999
		c2.21,0,3.998,1.781,3.998,3.999c0,6.606,5.381,11.995,11.995,11.995c6.615,0,11.995-5.389,11.995-11.995
		c0-2.218,1.789-3.999,3.999-3.999s3.998,1.781,3.998,3.999C443.827,502.829,434.862,511.802,423.835,511.802z"/>
	<path style="fill:#3A3847;" d="M439.829,359.862c-2.21,0-3.999-1.796-3.999-3.998c0-6.623-5.38-11.996-11.995-11.996
		c-6.614,0-11.995,5.373-11.995,11.996c0,2.202-1.788,3.998-3.998,3.998c-2.211,0-3.999-1.796-3.999-3.998
		c0-11.027,8.966-19.992,19.992-19.992c11.027,0,19.992,8.965,19.992,19.992C443.827,358.066,442.039,359.862,439.829,359.862z"/>
	<path style="fill:#3A3847;" d="M439.829,495.808c-2.21,0-3.999-1.796-3.999-3.998V355.864c0-2.219,1.789-3.999,3.999-3.999
		s3.998,1.78,3.998,3.999V491.81C443.827,494.012,442.039,495.808,439.829,495.808z"/>
	<path style="fill:#3A3847;" d="M407.841,495.808c-2.211,0-3.999-1.796-3.999-3.998V355.864c0-2.219,1.788-3.999,3.999-3.999
		c2.21,0,3.998,1.78,3.998,3.999V491.81C411.839,494.012,410.051,495.808,407.841,495.808z"/>
	<path style="fill:#3A3847;" d="M399.844,407.843h-127.95c-2.21,0-3.998-1.78-3.998-3.999c0-2.202,1.788-3.998,3.998-3.998h127.95
		c2.21,0,3.998,1.796,3.998,3.998C403.842,406.063,402.054,407.843,399.844,407.843z"/>
	<path style="fill:#3A3847;" d="M399.844,447.828h-127.95c-2.21,0-3.998-1.781-3.998-3.999c0-2.202,1.788-3.998,3.998-3.998h127.95
		c2.21,0,3.998,1.796,3.998,3.998C403.842,446.047,402.054,447.828,399.844,447.828z"/>
	<path style="fill:#3A3847;" d="M192.168,407.843h-7.997c-2.21,0-3.999-1.78-3.999-3.999c0-2.202,1.789-3.998,3.999-3.998h7.997
		c2.21,0,3.999,1.796,3.999,3.998C196.167,406.063,194.379,407.843,192.168,407.843z"/>
	<path style="fill:#3A3847;" d="M192.168,447.828h-7.997c-2.21,0-3.999-1.781-3.999-3.999c0-2.202,1.789-3.998,3.999-3.998h7.997
		c2.21,0,3.999,1.796,3.999,3.998C196.167,446.047,194.379,447.828,192.168,447.828z"/>
	<path style="fill:#3A3847;" d="M184.172,447.828c-2.21,0-3.999-1.781-3.999-3.999v-39.984c0-2.202,1.789-3.998,3.999-3.998
		s3.998,1.796,3.998,3.998v39.984C188.17,446.047,186.381,447.828,184.172,447.828z"/>
	<path style="fill:#3A3847;" d="M487.81,447.828h-7.997c-2.21,0-3.999-1.781-3.999-3.999c0-2.202,1.789-3.998,3.999-3.998h7.997
		c2.21,0,3.998,1.796,3.998,3.998C491.808,446.047,490.02,447.828,487.81,447.828z"/>
	<path style="fill:#3A3847;" d="M487.81,407.843h-7.997c-2.21,0-3.999-1.78-3.999-3.999c0-2.202,1.789-3.998,3.999-3.998h7.997
		c2.21,0,3.998,1.796,3.998,3.998C491.808,406.063,490.02,407.843,487.81,407.843z"/>
	<path style="fill:#3A3847;" d="M487.81,447.828c-2.211,0-3.999-1.781-3.999-3.999v-39.984c0-2.202,1.788-3.998,3.999-3.998
		c2.21,0,3.998,1.796,3.998,3.998v39.984C491.808,446.047,490.02,447.828,487.81,447.828z"/>
	<path style="fill:#3A3847;" d="M247.904,471.818c-2.21,0-3.998-1.796-3.998-3.999v-87.965c0-2.202,1.788-3.998,3.998-3.998
		s3.999,1.796,3.999,3.998v87.965C251.902,470.022,250.114,471.818,247.904,471.818z"/>
	<path style="fill:#3A3847;" d="M215.917,455.825c-2.21,0-3.998-1.781-3.998-3.999v-55.978c0-2.203,1.788-3.999,3.998-3.999
		s3.999,1.796,3.999,3.999v55.978C219.915,454.044,218.127,455.825,215.917,455.825z"/>
	<path style="fill:#3A3847;" d="M423.835,471.818c-2.21,0-3.998-1.78-3.998-3.999v-87.965c0-2.218,1.788-3.998,3.998-3.998
		s3.999,1.78,3.999,3.998v87.965C427.834,470.038,426.045,471.818,423.835,471.818z"/>
	<path style="fill:#3A3847;" d="M455.822,455.825c-2.21,0-3.998-1.797-3.998-3.999v-55.978c0-2.203,1.788-3.999,3.998-3.999
		c2.211,0,3.999,1.796,3.999,3.999v55.978C459.821,454.028,458.033,455.825,455.822,455.825z"/>
</g>
<g>
</g>
<g>
</g>
<g>
</g>
<g>
</g>
<g>
</g>
<g>
</g>
<g>
</g>
<g>
</g>
<g>
</g>
<g>
</g>
<g>
</g>
<g>
</g>
<g>
</g>
<g>
</g>
<g>
</g>
</svg>
